<?xml version="1.0" standalone="no"?>
<!DOCTYPE svg PUBLIC "-//W3C//DTD SVG 20010904//EN"
 "http://www.w3.org/TR/2001/REC-SVG-20010904/DTD/svg10.dtd">
<svg version="1.0" xmlns="http://www.w3.org/2000/svg"
 width="1390.000000pt" height="1132.000000pt" viewBox="0 0 1390.000000 1132.000000"
 preserveAspectRatio="xMidYMid meet">

<g transform="translate(0.000000,1132.000000) scale(0.100000,-0.100000)"
fill="#ffffff" stroke="none">
<path d="M3380 10853 c-100 -12 -236 -73 -316 -143 -163 -142 -240 -383 -189
-585 55 -216 236 -399 442 -447 l53 -13 9 -50 c10 -50 51 -324 54 -359 2 -16
-10 -22 -66 -37 -37 -9 -93 -30 -125 -45 -60 -31 -174 -131 -213 -189 -28 -42
-32 -43 -269 -85 -424 -75 -721 -133 -795 -154 -552 -159 -1016 -617 -1218
-1202 -77 -221 -102 -411 -92 -694 l6 -195 -53 -27 c-171 -89 -290 -242 -340
-440 -35 -139 -18 -281 121 -1028 33 -176 74 -262 178 -372 111 -116 237 -176
387 -187 64 -4 91 -10 97 -21 5 -8 32 -73 60 -143 143 -355 398 -648 730 -840
229 -131 457 -203 729 -228 149 -14 237 -8 532 32 455 61 421 58 434 41 22
-30 47 -82 42 -87 -9 -9 -201 -34 -343 -45 -144 -10 -256 -35 -329 -72 -263
-134 -422 -399 -457 -766 -44 -461 156 -1211 424 -1588 83 -117 200 -234 267
-267 54 -27 55 -27 272 -27 120 0 218 3 218 6 0 4 -35 68 -79 143 -233 402
-381 727 -512 1125 -137 415 -188 710 -150 866 44 178 202 330 362 347 47 5
63 1 109 -22 143 -73 443 -28 825 122 294 116 443 203 864 501 396 281 519
350 675 374 241 37 465 -112 496 -331 20 -145 -35 -288 -159 -412 -42 -42
-173 -148 -291 -236 -118 -89 -289 -222 -380 -297 -298 -246 -504 -386 -735
-500 -277 -137 -530 -206 -823 -225 -141 -10 -171 -23 -186 -84 -8 -32 -1 -65
54 -244 136 -447 301 -883 408 -1078 l27 -50 500 4 c275 2 501 5 503 6 3 3
165 789 317 1538 41 202 78 374 82 381 15 25 79 73 217 165 288 191 527 393
622 527 100 140 147 286 147 454 0 126 -18 201 -75 314 -73 145 -245 292 -395
337 -24 7 -43 17 -43 24 0 7 14 77 31 156 56 262 179 870 225 1109 235 1225
345 1813 509 2710 30 168 62 326 71 351 45 138 188 262 351 304 80 21 118 19
288 -15 232 -47 884 -171 1365 -259 434 -79 511 -93 1415 -256 526 -94 798
-145 803 -149 3 -4 -51 -282 -199 -1021 -67 -330 -123 -631 -126 -670 -20
-272 151 -555 413 -681 94 -45 106 -48 939 -223 391 -83 742 -157 780 -166 39
-8 80 -18 93 -20 37 -9 43 39 -108 -745 -38 -195 -90 -465 -115 -600 -86 -461
-226 -1175 -250 -1275 -32 -134 -47 -175 -101 -266 -25 -43 -49 -92 -54 -109
-13 -44 22 -426 43 -466 27 -52 54 -69 111 -69 130 0 203 143 176 343 -6 46
-20 106 -30 132 l-19 49 61 54 c109 98 187 124 261 88 113 -55 177 -260 164
-526 -19 -369 -174 -603 -469 -707 -103 -36 -237 -58 -361 -58 -54 0 -107 -5
-117 -10 -12 -7 -21 -26 -26 -58 -3 -26 -35 -190 -70 -365 -35 -175 -64 -323
-64 -328 0 -7 57 -9 160 -7 148 3 161 5 181 25 17 17 34 74 75 264 29 133 55
243 56 244 2 1 57 7 123 13 241 23 378 77 504 197 47 45 95 104 125 154 195
324 254 880 126 1184 -86 201 -250 327 -425 327 -49 0 -56 2 -51 18 3 9 57
278 120 597 64 319 169 848 235 1175 66 327 122 615 126 640 9 62 -10 163 -44
230 -15 30 -90 141 -167 245 -396 538 -1118 1599 -1628 2395 -148 230 -195
287 -281 339 -93 56 -74 52 -860 196 -198 36 -443 81 -545 100 -296 55 -1730
319 -2170 399 -312 56 -348 60 -449 46 -232 -32 -429 -159 -562 -364 -32 -48
-67 -112 -79 -142 l-22 -54 -101 95 c-266 253 -597 396 -958 412 -156 7 -150
8 -726 -87 -231 -39 -429 -70 -439 -70 -10 0 -46 19 -81 41 -124 81 -276 117
-406 98 -38 -6 -71 -8 -74 -5 -5 5 -41 207 -66 368 -5 35 -4 37 56 76 121 79
213 196 259 331 30 88 33 267 5 351 -38 111 -70 164 -152 246 -136 138 -301
198 -485 177z m2252 -1858 c169 -35 323 -100 456 -195 76 -54 265 -230 332
-310 37 -44 38 -48 30 -90 -13 -62 -136 -724 -161 -861 -11 -62 -23 -118 -27
-126 -5 -9 -31 23 -81 98 -129 196 -276 327 -466 415 -189 87 -417 114 -645
75 -392 -68 -1213 -215 -1660 -297 -283 -53 -587 -109 -675 -125 -212 -39
-315 -69 -427 -125 -122 -61 -206 -122 -299 -215 -208 -209 -338 -515 -339
-797 0 -131 186 -1211 231 -1337 126 -353 436 -623 815 -711 57 -14 118 -19
219 -18 124 0 183 7 515 62 903 149 1705 288 2183 378 76 15 140 25 142 23 4
-5 -93 -480 -99 -486 -2 -3 -33 -11 -67 -19 -212 -49 -400 -140 -554 -269 -27
-23 -56 -45 -62 -49 -22 -12 -887 -162 -1423 -246 -107 -17 -298 -47 -425 -67
-464 -73 -734 -43 -1060 116 -426 209 -711 591 -824 1107 -66 298 -257 1425
-276 1619 -32 344 -25 574 25 770 74 295 213 539 430 755 176 176 363 293 587
366 120 39 104 36 1758 323 369 64 1455 246 1515 254 60 9 255 -2 332 -18z
m-2678 -2419 c711 -326 737 -339 763 -367 70 -77 53 -173 -45 -260 -27 -24
-187 -170 -356 -324 -169 -154 -321 -286 -338 -293 -109 -46 -219 88 -160 195
9 18 137 143 285 278 147 136 267 250 267 255 0 4 -17 15 -37 23 -161 65 -633
285 -655 305 -52 48 -62 137 -22 197 19 29 84 64 118 65 11 0 92 -33 180 -74z
m2525 -683 c78 -57 76 -176 -3 -228 -22 -15 -212 -48 -737 -131 -105 -16 -186
-24 -204 -20 -15 4 -43 22 -62 41 -29 29 -33 39 -33 89 0 47 4 60 31 90 16 19
40 38 52 42 55 18 856 143 891 139 22 -2 51 -12 65 -22z"/>
<path d="M7294 5501 c-37 -17 -76 -57 -117 -123 -9 -14 -40 -39 -69 -55 -89
-47 -122 -128 -83 -203 24 -46 48 -53 190 -55 105 -2 180 -11 390 -48 143 -25
352 -62 465 -82 113 -19 288 -51 390 -70 102 -19 444 -82 760 -139 316 -58
685 -125 820 -150 311 -57 1455 -265 1660 -302 l155 -27 48 21 c38 17 52 30
67 64 11 24 20 53 20 65 0 38 -31 102 -59 123 -40 27 -82 36 -1101 225 -256
47 -568 106 -695 130 -329 63 -1328 245 -1675 305 -162 28 -312 55 -332 61
-51 13 -90 49 -127 114 -46 81 -73 92 -341 131 -259 38 -310 41 -366 15z"/>
<path d="M7172 4681 c-64 -22 -124 -77 -159 -145 -34 -66 -113 -463 -113 -566
0 -63 5 -83 28 -125 31 -56 96 -110 150 -124 80 -22 431 -83 503 -88 129 -10
238 46 290 149 11 21 47 156 80 300 49 212 60 274 56 317 -7 70 -50 139 -102
167 -41 22 -588 135 -650 134 -16 0 -54 -9 -83 -19z m312 -291 c89 -17 174
-34 191 -38 51 -13 53 -42 16 -203 -49 -209 -60 -240 -99 -262 -32 -19 -33
-19 -198 10 -92 15 -179 35 -194 45 -46 27 -45 55 6 252 37 142 52 186 71 204
13 12 29 22 35 22 6 0 84 -14 172 -30z"/>
<path d="M8342 4135 c-41 -34 -55 -75 -50 -137 5 -43 11 -57 39 -83 32 -29 48
-33 274 -74 132 -24 454 -83 715 -132 261 -49 488 -89 505 -89 124 0 172 177
70 262 -26 22 -88 36 -435 98 -157 28 -446 80 -643 116 -196 35 -377 64 -401
64 -33 0 -52 -7 -74 -25z"/>
<path d="M11429 3815 c-260 -63 -415 -261 -380 -484 22 -138 99 -294 199 -402
87 -95 155 -101 297 -30 178 91 464 340 520 454 38 80 34 174 -13 269 -54 111
-136 168 -243 168 -24 1 -69 9 -99 20 -66 23 -196 25 -281 5z m325 -341 c25
-10 38 -41 27 -63 -10 -17 -193 -167 -268 -219 -62 -43 -87 -29 -162 87 -44
69 -51 104 -24 133 28 32 74 23 118 -22 21 -22 47 -40 58 -40 10 0 46 19 79
42 68 46 139 88 150 88 3 0 14 -3 22 -6z"/>
<path d="M6850 3454 c-44 -37 -63 -81 -64 -144 -1 -65 24 -115 69 -142 30 -17
96 -29 1215 -218 1672 -282 2384 -400 2418 -400 86 0 152 66 152 152 0 108
-40 136 -240 172 -80 14 -388 68 -685 120 -297 53 -796 141 -1110 196 -739
131 -709 126 -1211 214 -237 42 -449 76 -472 76 -29 0 -49 -7 -72 -26z"/>
<path d="M6743 2796 c-106 -34 -196 -126 -249 -256 -27 -66 -134 -561 -134
-619 0 -66 29 -140 73 -188 70 -76 112 -90 366 -129 124 -19 251 -34 283 -34
121 0 246 80 301 194 30 61 134 529 144 647 8 93 -14 163 -73 228 -75 84 -107
94 -439 146 -180 28 -212 29 -272 11z m316 -277 c90 -17 175 -37 187 -46 24
-16 54 -70 54 -100 0 -10 -22 -97 -49 -193 -81 -288 -87 -300 -147 -326 -26
-11 -54 -9 -210 18 -98 16 -190 36 -202 45 -13 8 -31 31 -39 51 -15 36 -14 45
32 232 56 234 80 290 138 325 23 14 48 25 56 25 8 0 89 -14 180 -31z"/>
<path d="M7853 2159 c-63 -13 -100 -51 -117 -122 -17 -72 44 -159 121 -171
178 -28 1345 -216 1558 -251 148 -25 288 -45 310 -45 137 0 189 187 75 271
-34 25 -65 31 -974 175 -434 68 -824 130 -865 137 -42 7 -91 10 -108 6z"/>
<path d="M10897 1879 c-133 -31 -273 -157 -317 -284 -50 -146 7 -312 165 -483
138 -148 219 -148 433 5 194 138 341 293 414 434 63 123 47 257 -35 308 -75
46 -129 38 -229 -36 -49 -37 -65 -43 -77 -34 -41 29 -136 73 -188 86 -63 16
-108 18 -166 4z m67 -352 c42 -45 57 -49 100 -26 55 29 126 20 126 -16 0 -15
-114 -110 -175 -146 -48 -29 -74 -20 -128 43 -57 67 -70 93 -61 121 20 67 87
78 138 24z"/>
<path d="M6229 1257 c-49 -32 -83 -105 -75 -161 9 -56 54 -120 105 -145 40
-21 270 -67 601 -121 204 -33 1059 -142 1265 -161 172 -16 2505 -25 2505 -9 0
5 -13 10 -29 10 -15 0 -113 16 -217 35 -104 20 -418 67 -699 105 -280 39 -607
84 -725 100 -118 16 -253 34 -300 40 -47 6 -195 26 -330 45 -135 19 -447 62
-695 95 -486 66 -821 114 -1118 161 -226 35 -244 35 -288 6z"/>
</g>
</svg>
